<?xml version="1.0" ?><svg id="Itune" style="enable-background:new 0 0 32 32;" version="1.1" viewBox="0 0 32 32" xml:space="preserve" xmlns="http://www.w3.org/2000/svg" xmlns:xlink="http://www.w3.org/1999/xlink"><g><path d="M16,0C7.178,0,0,7.178,0,16s7.178,16,16,16s16-7.178,16-16S24.822,0,16,0z M16,30C8.28,30,2,23.72,2,16S8.28,2,16,2   s14,6.28,14,14S23.72,30,16,30z"/><path d="M22.804,8.02l-10,2C12.336,10.113,12,10.523,12,11v7.184C11.686,18.072,11.352,18,11,18H9c-1.654,0-3,1.346-3,3   s1.346,3,3,3h2c1.654,0,3-1.346,3-3v-9.18l8-1.6v7.965C21.686,18.072,21.352,18,21,18h-2c-1.654,0-3,1.346-3,3s1.346,3,3,3h2   c1.654,0,3-1.346,3-3V9c0-0.3-0.135-0.583-0.366-0.773C23.403,8.037,23.101,7.961,22.804,8.02z M11,22H9c-0.551,0-1-0.449-1-1   s0.449-1,1-1h2c0.551,0,1,0.449,1,1S11.551,22,11,22z M21,22h-2c-0.551,0-1-0.449-1-1s0.449-1,1-1h2c0.551,0,1,0.449,1,1   S21.551,22,21,22z"/></g></svg>